<?xml version="1.0" encoding="utf-8"?>
<svg xmlns="http://www.w3.org/2000/svg" style="margin: auto; background: rgb(241, 242, 243); display: block; shape-rendering: auto;" width="280" height="130" preserveAspectRatio="xMidYMid">
<style type="text/css">
  text {
    text-anchor: middle; font-size: 28px; opacity: 0;
  }
</style>
<g style="transform-origin: 140px 65px; transform: scale(0.35);">
<g transform="translate(140,65)">
  <g transform="translate(0,0)"><g class="path" style="transform: scale(0.91); transform-origin: -349.531px 0.586201px; animation: 1.25s linear -0.781579s infinite normal forwards running breath-6f375325-2d3b-4ce0-9ddc-60bf087b43e6;"><path d="M59.92-26.91L59.92-26.91L59.92-26.17L59.92-26.17Q59.84-22.89 59.24-19.38L59.24-19.38L59.24-19.38Q58.63-15.86 57.54-12.34L57.54-12.34L57.54-12.34Q56.45-8.83 54.92-5.39L54.92-5.39L54.92-5.39Q53.40-1.95 51.50 1.19L51.50 1.19L51.50 1.19Q49.61 4.34 47.42 7.09L47.42 7.09L47.42 7.09Q45.23 9.84 42.81 11.95L42.81 11.95L36.99 8.59L36.99 8.59Q38.36 6.29 39.47 3.57L39.47 3.57L39.47 3.57Q40.59 0.86 41.48-2.11L41.48-2.11L41.48-2.11Q42.38-5.08 43.03-8.20L43.03-8.20L43.03-8.20Q43.67-11.33 44.10-14.41L44.10-14.41L44.10-14.41Q44.53-17.50 44.75-20.49L44.75-20.49L44.75-20.49Q44.96-23.48 44.96-26.17L44.96-26.17L44.96-26.17Q44.96-28.28 44.94-30.96L44.94-30.96L44.94-30.96Q44.92-33.63 44.63-36.41L44.63-36.41L44.63-36.41Q44.34-39.18 43.67-41.82L43.67-41.82L43.67-41.82Q43.01-44.45 41.70-46.52L41.70-46.52L41.70-46.52Q40.39-48.59 38.34-49.84L38.34-49.84L38.34-49.84Q36.29-51.09 33.24-51.09L33.24-51.09L33.24-51.09Q30.55-51.09 28.61-50.18L28.61-50.18L28.61-50.18Q26.68-49.26 25.33-47.71L25.33-47.71L25.33-47.71Q23.98-46.17 23.18-44.14L23.18-44.14L23.18-44.14Q22.38-42.11 21.93-39.86L21.93-39.86L21.93-39.86Q21.48-37.62 21.35-35.33L21.35-35.33L21.35-35.33Q21.21-33.05 21.21-31.02L21.21-31.02L21.21-20.12L38.05-20.12L38.05-13.67L21.21-13.67L21.21 0L5.70 0L5.70-28.59L5.70-28.59Q5.70-34.73 7.66-40L7.66-40L7.66-40Q9.61-45.27 13.18-49.16L13.18-49.16L13.18-49.16Q16.76-53.05 21.78-55.25L21.78-55.25L21.78-55.25Q26.80-57.46 32.97-57.46L32.97-57.46L32.97-57.46Q37.15-57.46 40.80-56.27L40.80-56.27L40.80-56.27Q44.45-55.08 47.46-52.99L47.46-52.99L47.46-52.99Q50.47-50.90 52.83-48.03L52.83-48.03L52.83-48.03Q55.20-45.16 56.78-41.76L56.78-41.76L56.78-41.76Q58.36-38.36 59.18-34.57L59.18-34.57L59.18-34.57Q60-30.78 59.92-26.91" fill="#5e622a" stroke="none" stroke-width="none" transform="translate(-382.34503746032715,23.34120193481445)" style="fill: rgb(94, 98, 42);"></path></g><g class="path" style="transform: scale(0.91); transform-origin: -307.385px -23.1038px; animation: 1.25s linear -0.738158s infinite normal forwards running breath-6f375325-2d3b-4ce0-9ddc-60bf087b43e6;"><path d="M67.81-56.25L82.11-56.25L79.73-36.64L70.20-36.64L67.81-56.25" fill="#5e622a" stroke="none" stroke-width="none" transform="translate(-382.34503746032715,23.34120193481445)" style="fill: rgb(180, 62, 241);"></path></g><g class="path" style="transform: scale(0.91); transform-origin: -273.905px 0.781202px; animation: 1.25s linear -0.694737s infinite normal forwards running breath-6f375325-2d3b-4ce0-9ddc-60bf087b43e6;"><path d="M127.54-5.23L127.54 0L89.34 0L89.34-5.23L89.34-5.23L112.97-39.88L89.34-39.88L89.34-45.12L127.54-45.12L127.54-39.88L103.91-5.23L127.54-5.23" fill="#5e622a" stroke="none" stroke-width="none" transform="translate(-382.34503746032715,23.34120193481445)" style="fill: rgb(149, 246, 38);"></path></g><g class="path" style="transform: scale(0.91); transform-origin: -225.94px 0.686203px; animation: 1.25s linear -0.651316s infinite normal forwards running breath-6f375325-2d3b-4ce0-9ddc-60bf087b43e6;"><path d="M180.39-45.12L180.39 0L167.19 0L167.19-5.39L167.19-5.39Q164.84-2.19 161.54-0.64L161.54-0.64L161.54-0.64Q158.24 0.90 154.30 0.90L154.30 0.90L154.30 0.90Q149.14 0.90 145.08-0.94L145.08-0.94L145.08-0.94Q141.02-2.77 138.20-5.96L138.20-5.96L138.20-5.96Q135.39-9.14 133.91-13.44L133.91-13.44L133.91-13.44Q132.42-17.73 132.42-22.66L132.42-22.66L132.42-22.66Q132.42-27.58 133.91-31.88L133.91-31.88L133.91-31.88Q135.39-36.17 138.20-39.36L138.20-39.36L138.20-39.36Q141.02-42.54 145.08-44.38L145.08-44.38L145.08-44.38Q149.14-46.21 154.30-46.21L154.30-46.21L154.30-46.21Q156.91-46.21 159.28-45.43L159.28-45.43L159.28-45.43Q161.64-44.65 163.61-43.22L163.61-43.22L163.61-43.22Q165.59-41.80 167.09-39.79L167.09-39.79L167.09-39.79Q168.59-37.77 169.45-35.31L169.45-35.31L175.31-45.12L180.39-45.12zM167.11-22.66L167.11-22.66L167.11-22.66Q167.11-24.41 166.93-26.37L166.93-26.37L166.93-26.37Q166.76-28.32 166.33-30.23L166.33-30.23L166.33-30.23Q165.90-32.15 165.14-33.89L165.14-33.89L165.14-33.89Q164.38-35.63 163.18-36.97L163.18-36.97L163.18-36.97Q161.99-38.32 160.31-39.10L160.31-39.10L160.31-39.10Q158.63-39.88 156.41-39.88L156.41-39.88L156.41-39.88Q154.18-39.88 152.54-39.08L152.54-39.08L152.54-39.08Q150.90-38.28 149.73-36.93L149.73-36.93L149.73-36.93Q148.55-35.59 147.79-33.83L147.79-33.83L147.79-33.83Q147.03-32.07 146.60-30.16L146.60-30.16L146.60-30.16Q146.17-28.24 146.00-26.31L146.00-26.31L146.00-26.31Q145.82-24.38 145.82-22.66L145.82-22.66L145.82-22.66Q145.82-20.94 146.00-18.98L146.00-18.98L146.00-18.98Q146.17-17.03 146.60-15.12L146.60-15.12L146.60-15.12Q147.03-13.20 147.79-11.45L147.79-11.45L147.79-11.45Q148.55-9.69 149.73-8.34L149.73-8.34L149.73-8.34Q150.90-6.99 152.54-6.19L152.54-6.19L152.54-6.19Q154.18-5.39 156.41-5.39L156.41-5.39L156.41-5.39Q158.44-5.39 160.02-6.23L160.02-6.23L160.02-6.23Q161.60-7.07 162.79-8.48L162.79-8.48L162.79-8.48Q163.98-9.88 164.80-11.68L164.80-11.68L164.80-11.68Q165.63-13.48 166.13-15.39L166.13-15.39L166.13-15.39Q166.64-17.30 166.88-19.20L166.88-19.20L166.88-19.20Q167.11-21.09 167.11-22.66" fill="#5e622a" stroke="none" stroke-width="none" transform="translate(-382.34503746032715,23.34120193481445)" style="fill: rgb(255, 18, 94);"></path></g><g class="path" style="transform: scale(0.91); transform-origin: -156.035px 5.0412px; animation: 1.25s linear -0.607895s infinite normal forwards running breath-6f375325-2d3b-4ce0-9ddc-60bf087b43e6;"><path d="M261.21-26.33L261.21-26.33L261.21-26.33Q261.21-21.68 260.12-16.64L260.12-16.64L260.12-16.64Q259.02-11.60 257.05-6.82L257.05-6.82L257.05-6.82Q255.08-2.03 252.30 2.23L252.30 2.23L252.30 2.23Q249.53 6.48 246.13 9.61L246.13 9.61L241.17 6.91L241.17 6.91Q242.30 4.88 243.24 2.34L243.24 2.34L243.24 2.34Q244.18-0.20 244.96-3.01L244.96-3.01L244.96-3.01Q245.74-5.82 246.33-8.79L246.33-8.79L246.33-8.79Q246.91-11.76 247.32-14.71L247.32-14.71L247.32-14.71Q247.73-17.66 247.93-20.43L247.93-20.43L247.93-20.43Q248.13-23.20 248.13-25.63L248.13-25.63L248.13-25.63Q248.13-26.99 248.05-28.59L248.05-28.59L248.05-28.59Q247.97-30.20 247.71-31.80L247.71-31.80L247.71-31.80Q247.46-33.40 246.95-34.86L246.95-34.86L246.95-34.86Q246.45-36.33 245.57-37.48L245.57-37.48L245.57-37.48Q244.69-38.63 243.38-39.32L243.38-39.32L243.38-39.32Q242.07-40 240.23-40L240.23-40L240.23-40Q238.44-40 237.17-39.04L237.17-39.04L237.17-39.04Q235.90-38.09 235-36.56L235-36.56L235-36.56Q234.10-35.04 233.57-33.13L233.57-33.13L233.57-33.13Q233.05-31.21 232.77-29.28L232.77-29.28L232.77-29.28Q232.50-27.34 232.40-25.59L232.40-25.59L232.40-25.59Q232.30-23.83 232.30-22.62L232.30-22.62L232.30 0L219.14 0L219.14-21.02L219.14-21.02Q219.14-22.38 219.18-24.32L219.18-24.32L219.18-24.32Q219.22-26.25 219.08-28.36L219.08-28.36L219.08-28.36Q218.95-30.47 218.57-32.56L218.57-32.56L218.57-32.56Q218.20-34.65 217.40-36.29L217.40-36.29L217.40-36.29Q216.60-37.93 215.23-38.96L215.23-38.96L215.23-38.96Q213.87-40 211.80-40L211.80-40L211.80-40Q210.04-40 208.85-39.02L208.85-39.02L208.85-39.02Q207.66-38.05 206.86-36.50L206.86-36.50L206.86-36.50Q206.05-34.96 205.61-33.03L205.61-33.03L205.61-33.03Q205.16-31.09 204.94-29.16L204.94-29.16L204.94-29.16Q204.73-27.23 204.69-25.49L204.69-25.49L204.69-25.49Q204.65-23.75 204.65-22.62L204.65-22.62L204.65 0L191.41 0L191.41-45.12L196.48-45.12L201.33-34.61L201.33-34.61Q202.97-40.08 206.50-43.14L206.50-43.14L206.50-43.14Q210.04-46.21 215.90-46.21L215.90-46.21L215.90-46.21Q221.17-46.21 224.65-44.02L224.65-44.02L224.65-44.02Q228.13-41.84 230.12-36.91L230.12-36.91L230.12-36.91Q231.25-39.06 232.64-40.78L232.64-40.78L232.64-40.78Q234.02-42.50 235.72-43.71L235.72-43.71L235.72-43.71Q237.42-44.92 239.49-45.57L239.49-45.57L239.49-45.57Q241.56-46.21 244.06-46.21L244.06-46.21L244.06-46.21Q248.67-46.21 251.93-44.71L251.93-44.71L251.93-44.71Q255.20-43.20 257.27-40.55L257.27-40.55L257.27-40.55Q259.34-37.89 260.27-34.24L260.27-34.24L260.27-34.24Q261.21-30.59 261.21-26.33" fill="#5e622a" stroke="none" stroke-width="none" transform="translate(-382.34503746032715,23.34120193481445)" style="fill: rgb(245, 192, 36);"></path></g><g class="path" style="transform: scale(0.91); transform-origin: -105.605px -32.6538px; animation: 1.25s linear -0.564474s infinite normal forwards running breath-6f375325-2d3b-4ce0-9ddc-60bf087b43e6;"><path d="M283.95-56.02L283.95-56.02L283.95-56.02Q283.95-54.53 283.38-53.20L283.38-53.20L283.38-53.20Q282.81-51.88 281.84-50.90L281.84-50.90L281.84-50.90Q280.86-49.92 279.55-49.36L279.55-49.36L279.55-49.36Q278.24-48.79 276.76-48.79L276.76-48.79L276.76-48.79Q275.27-48.79 273.95-49.36L273.95-49.36L273.95-49.36Q272.62-49.92 271.64-50.90L271.64-50.90L271.64-50.90Q270.66-51.88 270.10-53.20L270.10-53.20L270.10-53.20Q269.53-54.53 269.53-56.02L269.53-56.02L269.53-56.02Q269.53-57.50 270.10-58.81L270.10-58.81L270.10-58.81Q270.66-60.12 271.64-61.09L271.64-61.09L271.64-61.09Q272.62-62.07 273.95-62.64L273.95-62.64L273.95-62.64Q275.27-63.20 276.76-63.20L276.76-63.20L276.76-63.20Q278.24-63.20 279.55-62.64L279.55-62.64L279.55-62.64Q280.86-62.07 281.84-61.09L281.84-61.09L281.84-61.09Q282.81-60.12 283.38-58.81L283.38-58.81L283.38-58.81Q283.95-57.50 283.95-56.02" fill="#5e622a" stroke="none" stroke-width="none" transform="translate(-382.34503746032715,23.34120193481445)" style="fill: rgb(94, 98, 42);"></path></g><g class="path" style="transform: scale(0.91); transform-origin: -109.59px 11.1912px; animation: 1.25s linear -0.521053s infinite normal forwards running breath-6f375325-2d3b-4ce0-9ddc-60bf087b43e6;"><path d="M283.36-45.12L283.36-13.05L283.36-13.05Q283.36-8.40 282.19-3.61L282.19-3.61L282.19-3.61Q281.02 1.17 278.89 5.64L278.89 5.64L278.89 5.64Q276.76 10.12 273.81 14.04L273.81 14.04L273.81 14.04Q270.86 17.97 267.30 20.82L267.30 20.82L262.15 17.70L262.15 17.70Q264.14 14.96 265.63 11.50L265.63 11.50L265.63 11.50Q267.11 8.05 268.11 4.34L268.11 4.34L268.11 4.34Q269.10 0.63 269.61-3.14L269.61-3.14L269.61-3.14Q270.12-6.91 270.12-10.31L270.12-10.31L270.12-45.12L283.36-45.12" fill="#5e622a" stroke="none" stroke-width="none" transform="translate(-382.34503746032715,23.34120193481445)" style="fill: rgb(180, 62, 241);"></path></g><g class="path" style="transform: scale(0.91); transform-origin: -65.645px 0.686203px; animation: 1.25s linear -0.477632s infinite normal forwards running breath-6f375325-2d3b-4ce0-9ddc-60bf087b43e6;"><path d="M341.88-22.66L341.88-22.66L341.88-22.66Q341.88-19.14 340.94-16.05L340.94-16.05L340.94-16.05Q340-12.97 338.34-10.35L338.34-10.35L338.34-10.35Q336.68-7.73 334.34-5.64L334.34-5.64L334.34-5.64Q331.99-3.55 329.20-2.11L329.20-2.11L329.20-2.11Q326.41-0.66 323.22 0.12L323.22 0.12L323.22 0.12Q320.04 0.90 316.68 0.90L316.68 0.90L316.68 0.90Q313.32 0.90 310.16 0.12L310.16 0.12L310.16 0.12Q306.99-0.66 304.20-2.11L304.20-2.11L304.20-2.11Q301.41-3.55 299.06-5.64L299.06-5.64L299.06-5.64Q296.72-7.73 295.06-10.35L295.06-10.35L295.06-10.35Q293.40-12.97 292.46-16.07L292.46-16.07L292.46-16.07Q291.52-19.18 291.52-22.66L291.52-22.66L291.52-22.66Q291.52-26.13 292.46-29.24L292.46-29.24L292.46-29.24Q293.40-32.34 295.06-34.96L295.06-34.96L295.06-34.96Q296.72-37.58 299.06-39.67L299.06-39.67L299.06-39.67Q301.41-41.76 304.20-43.20L304.20-43.20L304.20-43.20Q306.99-44.65 310.16-45.43L310.16-45.43L310.16-45.43Q313.32-46.21 316.68-46.21L316.68-46.21L316.68-46.21Q320.04-46.21 323.22-45.43L323.22-45.43L323.22-45.43Q326.41-44.65 329.20-43.20L329.20-43.20L329.20-43.20Q331.99-41.76 334.34-39.67L334.34-39.67L334.34-39.67Q336.68-37.58 338.34-34.96L338.34-34.96L338.34-34.96Q340-32.34 340.94-29.24L340.94-29.24L340.94-29.24Q341.88-26.13 341.88-22.66zM328.44-22.66L328.44-22.66L328.44-22.66Q328.44-24.53 328.22-26.62L328.22-26.62L328.22-26.62Q328.01-28.71 327.50-30.72L327.50-30.72L327.50-30.72Q326.99-32.73 326.11-34.59L326.11-34.59L326.11-34.59Q325.23-36.45 323.95-37.83L323.95-37.83L323.95-37.83Q322.66-39.22 320.86-40.06L320.86-40.06L320.86-40.06Q319.06-40.90 316.68-40.90L316.68-40.90L316.68-40.90Q314.41-40.90 312.66-40.04L312.66-40.04L312.66-40.04Q310.90-39.18 309.59-37.75L309.59-37.75L309.59-37.75Q308.28-36.33 307.40-34.45L307.40-34.45L307.40-34.45Q306.52-32.58 305.98-30.57L305.98-30.57L305.98-30.57Q305.43-28.55 305.20-26.50L305.20-26.50L305.20-26.50Q304.96-24.45 304.96-22.66L304.96-22.66L304.96-22.66Q304.96-20.86 305.20-18.81L305.20-18.81L305.20-18.81Q305.43-16.76 305.98-14.73L305.98-14.73L305.98-14.73Q306.52-12.70 307.40-10.84L307.40-10.84L307.40-10.84Q308.28-8.98 309.59-7.56L309.59-7.56L309.59-7.56Q310.90-6.13 312.66-5.27L312.66-5.27L312.66-5.27Q314.41-4.41 316.68-4.41L316.68-4.41L316.68-4.41Q319.02-4.41 320.82-5.25L320.82-5.25L320.82-5.25Q322.62-6.09 323.93-7.50L323.93-7.50L323.93-7.50Q325.23-8.91 326.09-10.74L326.09-10.74L326.09-10.74Q326.95-12.58 327.48-14.61L327.48-14.61L327.48-14.61Q328.01-16.64 328.22-18.71L328.22-18.71L328.22-18.71Q328.44-20.78 328.44-22.66" fill="#5e622a" stroke="none" stroke-width="none" transform="translate(-382.34503746032715,23.34120193481445)" style="fill: rgb(149, 246, 38);"></path></g><g class="path" style="transform: scale(0.91); transform-origin: -9.08003px 5.0412px; animation: 1.25s linear -0.434211s infinite normal forwards running breath-6f375325-2d3b-4ce0-9ddc-60bf087b43e6;"><path d="M396.33-25.86L396.33-25.86L396.33-25.86Q396.33-21.29 395.21-16.33L395.21-16.33L395.21-16.33Q394.10-11.37 392.11-6.60L392.11-6.60L392.11-6.60Q390.12-1.84 387.34 2.36L387.34 2.36L387.34 2.36Q384.57 6.56 381.25 9.61L381.25 9.61L376.29 6.91L376.29 6.91Q377.34 4.96 378.28 2.54L378.28 2.54L378.28 2.54Q379.22 0.12 379.98-2.60L379.98-2.60L379.98-2.60Q380.74-5.31 381.35-8.20L381.35-8.20L381.35-8.20Q381.95-11.09 382.36-13.93L382.36-13.93L382.36-13.93Q382.77-16.76 382.99-19.43L382.99-19.43L382.99-19.43Q383.20-22.11 383.20-24.41L383.20-24.41L383.20-24.41Q383.20-25.94 383.09-27.68L383.09-27.68L383.09-27.68Q382.97-29.41 382.60-31.15L382.60-31.15L382.60-31.15Q382.23-32.89 381.60-34.49L381.60-34.49L381.60-34.49Q380.98-36.09 379.94-37.30L379.94-37.30L379.94-37.30Q378.91-38.52 377.44-39.26L377.44-39.26L377.44-39.26Q375.98-40 373.98-40L373.98-40L373.98-40Q372.03-40 370.51-39.12L370.51-39.12L370.51-39.12Q368.98-38.24 367.81-36.82L367.81-36.82L367.81-36.82Q366.64-35.39 365.80-33.55L365.80-33.55L365.80-33.55Q364.96-31.72 364.43-29.79L364.43-29.79L364.43-29.79Q363.91-27.85 363.67-25.98L363.67-25.98L363.67-25.98Q363.44-24.10 363.44-22.62L363.44-22.62L363.44 0L350.20 0L350.20-45.12L355.27-45.12L361.33-34.61L361.33-34.61Q362.42-37.23 364.06-39.38L364.06-39.38L364.06-39.38Q365.70-41.52 367.77-43.05L367.77-43.05L367.77-43.05Q369.84-44.57 372.36-45.39L372.36-45.39L372.36-45.39Q374.88-46.21 377.81-46.21L377.81-46.21L377.81-46.21Q382.50-46.21 385.98-44.69L385.98-44.69L385.98-44.69Q389.45-43.16 391.76-40.45L391.76-40.45L391.76-40.45Q394.06-37.73 395.20-34.00L395.20-34.00L395.20-34.00Q396.33-30.27 396.33-25.86" fill="#5e622a" stroke="none" stroke-width="none" transform="translate(-382.34503746032715,23.34120193481445)" style="fill: rgb(255, 18, 94);"></path></g><g class="path" style="transform: scale(0.91); transform-origin: 72.6585px 0.586201px; animation: 1.25s linear -0.390789s infinite normal forwards running breath-6f375325-2d3b-4ce0-9ddc-60bf087b43e6;"><path d="M482.11-26.91L482.11-26.91L482.11-26.17L482.11-26.17Q482.03-22.89 481.43-19.38L481.43-19.38L481.43-19.38Q480.82-15.86 479.73-12.34L479.73-12.34L479.73-12.34Q478.63-8.83 477.11-5.39L477.11-5.39L477.11-5.39Q475.59-1.95 473.69 1.19L473.69 1.19L473.69 1.19Q471.80 4.34 469.61 7.09L469.61 7.09L469.61 7.09Q467.42 9.84 465 11.95L465 11.95L459.18 8.59L459.18 8.59Q460.55 6.29 461.66 3.57L461.66 3.57L461.66 3.57Q462.77 0.86 463.67-2.11L463.67-2.11L463.67-2.11Q464.57-5.08 465.21-8.20L465.21-8.20L465.21-8.20Q465.86-11.33 466.29-14.41L466.29-14.41L466.29-14.41Q466.72-17.50 466.93-20.49L466.93-20.49L466.93-20.49Q467.15-23.48 467.15-26.17L467.15-26.17L467.15-26.17Q467.15-28.28 467.13-30.96L467.13-30.96L467.13-30.96Q467.11-33.63 466.82-36.41L466.82-36.41L466.82-36.41Q466.52-39.18 465.86-41.82L465.86-41.82L465.86-41.82Q465.20-44.45 463.89-46.52L463.89-46.52L463.89-46.52Q462.58-48.59 460.53-49.84L460.53-49.84L460.53-49.84Q458.48-51.09 455.43-51.09L455.43-51.09L455.43-51.09Q452.73-51.09 450.80-50.18L450.80-50.18L450.80-50.18Q448.87-49.26 447.52-47.71L447.52-47.71L447.52-47.71Q446.17-46.17 445.37-44.14L445.37-44.14L445.37-44.14Q444.57-42.11 444.12-39.86L444.12-39.86L444.12-39.86Q443.67-37.62 443.54-35.33L443.54-35.33L443.54-35.33Q443.40-33.05 443.40-31.02L443.40-31.02L443.40-20.12L460.23-20.12L460.23-13.67L443.40-13.67L443.40 0L427.89 0L427.89-28.59L427.89-28.59Q427.89-34.73 429.84-40L429.84-40L429.84-40Q431.80-45.27 435.37-49.16L435.37-49.16L435.37-49.16Q438.95-53.05 443.96-55.25L443.96-55.25L443.96-55.25Q448.98-57.46 455.16-57.46L455.16-57.46L455.16-57.46Q459.34-57.46 462.99-56.27L462.99-56.27L462.99-56.27Q466.64-55.08 469.65-52.99L469.65-52.99L469.65-52.99Q472.66-50.90 475.02-48.03L475.02-48.03L475.02-48.03Q477.38-45.16 478.96-41.76L478.96-41.76L478.96-41.76Q480.55-38.36 481.37-34.57L481.37-34.57L481.37-34.57Q482.19-30.78 482.11-26.91" fill="#5e622a" stroke="none" stroke-width="none" transform="translate(-382.34503746032715,23.34120193481445)" style="fill: rgb(245, 192, 36);"></path></g><g class="path" style="transform: scale(0.91); transform-origin: 115px -9.6088px; animation: 1.25s linear -0.347368s infinite normal forwards running breath-6f375325-2d3b-4ce0-9ddc-60bf087b43e6;"><path d="M503.95-52.19L503.95 0L490.74 0L490.74-65.90L495.82-65.90L503.95-52.19" fill="#5e622a" stroke="none" stroke-width="none" transform="translate(-382.34503746032715,23.34120193481445)" style="fill: rgb(94, 98, 42);"></path></g><g class="path" style="transform: scale(0.91); transform-origin: 139.275px -32.6538px; animation: 1.25s linear -0.303947s infinite normal forwards running breath-6f375325-2d3b-4ce0-9ddc-60bf087b43e6;"><path d="M528.83-56.02L528.83-56.02L528.83-56.02Q528.83-54.53 528.26-53.20L528.26-53.20L528.26-53.20Q527.70-51.88 526.72-50.90L526.72-50.90L526.72-50.90Q525.74-49.92 524.41-49.36L524.41-49.36L524.41-49.36Q523.09-48.79 521.60-48.79L521.60-48.79L521.60-48.79Q520.12-48.79 518.81-49.36L518.81-49.36L518.81-49.36Q517.50-49.92 516.52-50.90L516.52-50.90L516.52-50.90Q515.55-51.88 514.98-53.20L514.98-53.20L514.98-53.20Q514.41-54.53 514.41-56.02L514.41-56.02L514.41-56.02Q514.41-57.50 514.98-58.81L514.98-58.81L514.98-58.81Q515.55-60.12 516.52-61.09L516.52-61.09L516.52-61.09Q517.50-62.07 518.81-62.64L518.81-62.64L518.81-62.64Q520.12-63.20 521.60-63.20L521.60-63.20L521.60-63.20Q523.09-63.20 524.41-62.64L524.41-62.64L524.41-62.64Q525.74-62.07 526.72-61.09L526.72-61.09L526.72-61.09Q527.70-60.12 528.26-58.81L528.26-58.81L528.26-58.81Q528.83-57.50 528.83-56.02" fill="#5e622a" stroke="none" stroke-width="none" transform="translate(-382.34503746032715,23.34120193481445)" style="fill: rgb(180, 62, 241);"></path></g><g class="path" style="transform: scale(0.91); transform-origin: 139.275px 0.801201px; animation: 1.25s linear -0.260526s infinite normal forwards running breath-6f375325-2d3b-4ce0-9ddc-60bf087b43e6;"><path d="M528.24-45.08L528.24 0L515 0L515-45.08L528.24-45.08" fill="#5e622a" stroke="none" stroke-width="none" transform="translate(-382.34503746032715,23.34120193481445)" style="fill: rgb(149, 246, 38);"></path></g><g class="path" style="transform: scale(0.91); transform-origin: 163.69px -32.6538px; animation: 1.25s linear -0.217105s infinite normal forwards running breath-6f375325-2d3b-4ce0-9ddc-60bf087b43e6;"><path d="M553.24-56.02L553.24-56.02L553.24-56.02Q553.24-54.53 552.68-53.20L552.68-53.20L552.68-53.20Q552.11-51.88 551.13-50.90L551.13-50.90L551.13-50.90Q550.16-49.92 548.85-49.36L548.85-49.36L548.85-49.36Q547.54-48.79 546.05-48.79L546.05-48.79L546.05-48.79Q544.57-48.79 543.24-49.36L543.24-49.36L543.24-49.36Q541.91-49.92 540.94-50.90L540.94-50.90L540.94-50.90Q539.96-51.88 539.39-53.20L539.39-53.20L539.39-53.20Q538.83-54.53 538.83-56.02L538.83-56.02L538.83-56.02Q538.83-57.50 539.39-58.81L539.39-58.81L539.39-58.81Q539.96-60.12 540.94-61.09L540.94-61.09L540.94-61.09Q541.91-62.07 543.24-62.64L543.24-62.64L543.24-62.64Q544.57-63.20 546.05-63.20L546.05-63.20L546.05-63.20Q547.54-63.20 548.85-62.64L548.85-62.64L548.85-62.64Q550.16-62.07 551.13-61.09L551.13-61.09L551.13-61.09Q552.11-60.12 552.68-58.81L552.68-58.81L552.68-58.81Q553.24-57.50 553.24-56.02" fill="#5e622a" stroke="none" stroke-width="none" transform="translate(-382.34503746032715,23.34120193481445)" style="fill: rgb(255, 18, 94);"></path></g><g class="path" style="transform: scale(0.91); transform-origin: 159.71px 11.1912px; animation: 1.25s linear -0.173684s infinite normal forwards running breath-6f375325-2d3b-4ce0-9ddc-60bf087b43e6;"><path d="M552.66-45.12L552.66-13.05L552.66-13.05Q552.66-8.40 551.48-3.61L551.48-3.61L551.48-3.61Q550.31 1.17 548.18 5.64L548.18 5.64L548.18 5.64Q546.05 10.12 543.11 14.04L543.11 14.04L543.11 14.04Q540.16 17.97 536.60 20.82L536.60 20.82L531.45 17.70L531.45 17.70Q533.44 14.96 534.92 11.50L534.92 11.50L534.92 11.50Q536.41 8.05 537.40 4.34L537.40 4.34L537.40 4.34Q538.40 0.63 538.91-3.14L538.91-3.14L538.91-3.14Q539.41-6.91 539.41-10.31L539.41-10.31L539.41-45.12L552.66-45.12" fill="#5e622a" stroke="none" stroke-width="none" transform="translate(-382.34503746032715,23.34120193481445)" style="fill: rgb(245, 192, 36);"></path></g><g class="path" style="transform: scale(0.91); transform-origin: 203.65px 0.686203px; animation: 1.25s linear -0.130263s infinite normal forwards running breath-6f375325-2d3b-4ce0-9ddc-60bf087b43e6;"><path d="M611.17-22.66L611.17-22.66L611.17-22.66Q611.17-19.14 610.23-16.05L610.23-16.05L610.23-16.05Q609.30-12.97 607.64-10.35L607.64-10.35L607.64-10.35Q605.98-7.73 603.63-5.64L603.63-5.64L603.63-5.64Q601.29-3.55 598.50-2.11L598.50-2.11L598.50-2.11Q595.70-0.66 592.52 0.12L592.52 0.12L592.52 0.12Q589.34 0.90 585.98 0.90L585.98 0.90L585.98 0.90Q582.62 0.90 579.45 0.12L579.45 0.12L579.45 0.12Q576.29-0.66 573.50-2.11L573.50-2.11L573.50-2.11Q570.70-3.55 568.36-5.64L568.36-5.64L568.36-5.64Q566.02-7.73 564.36-10.35L564.36-10.35L564.36-10.35Q562.70-12.97 561.76-16.07L561.76-16.07L561.76-16.07Q560.82-19.18 560.82-22.66L560.82-22.66L560.82-22.66Q560.82-26.13 561.76-29.24L561.76-29.24L561.76-29.24Q562.70-32.34 564.36-34.96L564.36-34.96L564.36-34.96Q566.02-37.58 568.36-39.67L568.36-39.67L568.36-39.67Q570.70-41.76 573.50-43.20L573.50-43.20L573.50-43.20Q576.29-44.65 579.45-45.43L579.45-45.43L579.45-45.43Q582.62-46.21 585.98-46.21L585.98-46.21L585.98-46.21Q589.34-46.21 592.52-45.43L592.52-45.43L592.52-45.43Q595.70-44.65 598.50-43.20L598.50-43.20L598.50-43.20Q601.29-41.76 603.63-39.67L603.63-39.67L603.63-39.67Q605.98-37.58 607.64-34.96L607.64-34.96L607.64-34.96Q609.30-32.34 610.23-29.24L610.23-29.24L610.23-29.24Q611.17-26.13 611.17-22.66zM597.73-22.66L597.73-22.66L597.73-22.66Q597.73-24.53 597.52-26.62L597.52-26.62L597.52-26.62Q597.30-28.71 596.80-30.72L596.80-30.72L596.80-30.72Q596.29-32.73 595.41-34.59L595.41-34.59L595.41-34.59Q594.53-36.45 593.24-37.83L593.24-37.83L593.24-37.83Q591.95-39.22 590.16-40.06L590.16-40.06L590.16-40.06Q588.36-40.90 585.98-40.90L585.98-40.90L585.98-40.90Q583.71-40.90 581.95-40.04L581.95-40.04L581.95-40.04Q580.20-39.18 578.89-37.75L578.89-37.75L578.89-37.75Q577.58-36.33 576.70-34.45L576.70-34.45L576.70-34.45Q575.82-32.58 575.27-30.57L575.27-30.57L575.27-30.57Q574.73-28.55 574.49-26.50L574.49-26.50L574.49-26.50Q574.26-24.45 574.26-22.66L574.26-22.66L574.26-22.66Q574.26-20.86 574.49-18.81L574.49-18.81L574.49-18.81Q574.73-16.76 575.27-14.73L575.27-14.73L575.27-14.73Q575.82-12.70 576.70-10.84L576.70-10.84L576.70-10.84Q577.58-8.98 578.89-7.56L578.89-7.56L578.89-7.56Q580.20-6.13 581.95-5.27L581.95-5.27L581.95-5.27Q583.71-4.41 585.98-4.41L585.98-4.41L585.98-4.41Q588.32-4.41 590.12-5.25L590.12-5.25L590.12-5.25Q591.91-6.09 593.22-7.50L593.22-7.50L593.22-7.50Q594.53-8.91 595.39-10.74L595.39-10.74L595.39-10.74Q596.25-12.58 596.78-14.61L596.78-14.61L596.78-14.61Q597.30-16.64 597.52-18.71L597.52-18.71L597.52-18.71Q597.73-20.78 597.73-22.66" fill="#5e622a" stroke="none" stroke-width="none" transform="translate(-382.34503746032715,23.34120193481445)" style="fill: rgb(94, 98, 42);"></path></g><g class="path" style="transform: scale(0.91); transform-origin: 260.215px 5.0412px; animation: 1.25s linear -0.0868421s infinite normal forwards running breath-6f375325-2d3b-4ce0-9ddc-60bf087b43e6;"><path d="M665.63-25.86L665.63-25.86L665.63-25.86Q665.63-21.29 664.51-16.33L664.51-16.33L664.51-16.33Q663.40-11.37 661.41-6.60L661.41-6.60L661.41-6.60Q659.41-1.84 656.64 2.36L656.64 2.36L656.64 2.36Q653.87 6.56 650.55 9.61L650.55 9.61L645.59 6.91L645.59 6.91Q646.64 4.96 647.58 2.54L647.58 2.54L647.58 2.54Q648.52 0.12 649.28-2.60L649.28-2.60L649.28-2.60Q650.04-5.31 650.64-8.20L650.64-8.20L650.64-8.20Q651.25-11.09 651.66-13.93L651.66-13.93L651.66-13.93Q652.07-16.76 652.29-19.43L652.29-19.43L652.29-19.43Q652.50-22.11 652.50-24.41L652.50-24.41L652.50-24.41Q652.50-25.94 652.38-27.68L652.38-27.68L652.38-27.68Q652.27-29.41 651.89-31.15L651.89-31.15L651.89-31.15Q651.52-32.89 650.90-34.49L650.90-34.49L650.90-34.49Q650.27-36.09 649.24-37.30L649.24-37.30L649.24-37.30Q648.20-38.52 646.74-39.26L646.74-39.26L646.74-39.26Q645.27-40 643.28-40L643.28-40L643.28-40Q641.33-40 639.80-39.12L639.80-39.12L639.80-39.12Q638.28-38.24 637.11-36.82L637.11-36.82L637.11-36.82Q635.94-35.39 635.10-33.55L635.10-33.55L635.10-33.55Q634.26-31.72 633.73-29.79L633.73-29.79L633.73-29.79Q633.20-27.85 632.97-25.98L632.97-25.98L632.97-25.98Q632.73-24.10 632.73-22.62L632.73-22.62L632.73 0L619.49 0L619.49-45.12L624.57-45.12L630.63-34.61L630.63-34.61Q631.72-37.23 633.36-39.38L633.36-39.38L633.36-39.38Q635-41.52 637.07-43.05L637.07-43.05L637.07-43.05Q639.14-44.57 641.66-45.39L641.66-45.39L641.66-45.39Q644.18-46.21 647.11-46.21L647.11-46.21L647.11-46.21Q651.80-46.21 655.27-44.69L655.27-44.69L655.27-44.69Q658.75-43.16 661.05-40.45L661.05-40.45L661.05-40.45Q663.36-37.73 664.49-34.00L664.49-34.00L664.49-34.00Q665.63-30.27 665.63-25.86" fill="#5e622a" stroke="none" stroke-width="none" transform="translate(-382.34503746032715,23.34120193481445)" style="fill: rgb(180, 62, 241);"></path></g><g class="path" style="transform: scale(0.91); transform-origin: 314.47px 0.686203px; animation: 1.25s linear -0.0434211s infinite normal forwards running breath-6f375325-2d3b-4ce0-9ddc-60bf087b43e6;"><path d="M721.99-22.66L721.99-22.66L721.99-22.66Q721.99-19.14 721.05-16.05L721.05-16.05L721.05-16.05Q720.12-12.97 718.46-10.35L718.46-10.35L718.46-10.35Q716.80-7.73 714.45-5.64L714.45-5.64L714.45-5.64Q712.11-3.55 709.32-2.11L709.32-2.11L709.32-2.11Q706.52-0.66 703.34 0.12L703.34 0.12L703.34 0.12Q700.16 0.90 696.80 0.90L696.80 0.90L696.80 0.90Q693.44 0.90 690.27 0.12L690.27 0.12L690.27 0.12Q687.11-0.66 684.32-2.11L684.32-2.11L684.32-2.11Q681.52-3.55 679.18-5.64L679.18-5.64L679.18-5.64Q676.84-7.73 675.18-10.35L675.18-10.35L675.18-10.35Q673.52-12.97 672.58-16.07L672.58-16.07L672.58-16.07Q671.64-19.18 671.64-22.66L671.64-22.66L671.64-22.66Q671.64-26.13 672.58-29.24L672.58-29.24L672.58-29.24Q673.52-32.34 675.18-34.96L675.18-34.96L675.18-34.96Q676.84-37.58 679.18-39.67L679.18-39.67L679.18-39.67Q681.52-41.76 684.32-43.20L684.32-43.20L684.32-43.20Q687.11-44.65 690.27-45.43L690.27-45.43L690.27-45.43Q693.44-46.21 696.80-46.21L696.80-46.21L696.80-46.21Q700.16-46.21 703.34-45.43L703.34-45.43L703.34-45.43Q706.52-44.65 709.32-43.20L709.32-43.20L709.32-43.20Q712.11-41.76 714.45-39.67L714.45-39.67L714.45-39.67Q716.80-37.58 718.46-34.96L718.46-34.96L718.46-34.96Q720.12-32.34 721.05-29.24L721.05-29.24L721.05-29.24Q721.99-26.13 721.99-22.66zM708.55-22.66L708.55-22.66L708.55-22.66Q708.55-24.53 708.34-26.62L708.34-26.62L708.34-26.62Q708.13-28.71 707.62-30.72L707.62-30.72L707.62-30.72Q707.11-32.73 706.23-34.59L706.23-34.59L706.23-34.59Q705.35-36.45 704.06-37.83L704.06-37.83L704.06-37.83Q702.77-39.22 700.98-40.06L700.98-40.06L700.98-40.06Q699.18-40.90 696.80-40.90L696.80-40.90L696.80-40.90Q694.53-40.90 692.77-40.04L692.77-40.04L692.77-40.04Q691.02-39.18 689.71-37.75L689.71-37.75L689.71-37.75Q688.40-36.33 687.52-34.45L687.52-34.45L687.52-34.45Q686.64-32.58 686.09-30.57L686.09-30.57L686.09-30.57Q685.55-28.55 685.31-26.50L685.31-26.50L685.31-26.50Q685.08-24.45 685.08-22.66L685.08-22.66L685.08-22.66Q685.08-20.86 685.31-18.81L685.31-18.81L685.31-18.81Q685.55-16.76 686.09-14.73L686.09-14.73L686.09-14.73Q686.64-12.70 687.52-10.84L687.52-10.84L687.52-10.84Q688.40-8.98 689.71-7.56L689.71-7.56L689.71-7.56Q691.02-6.13 692.77-5.27L692.77-5.27L692.77-5.27Q694.53-4.41 696.80-4.41L696.80-4.41L696.80-4.41Q699.14-4.41 700.94-5.25L700.94-5.25L700.94-5.25Q702.73-6.09 704.04-7.50L704.04-7.50L704.04-7.50Q705.35-8.91 706.21-10.74L706.21-10.74L706.21-10.74Q707.07-12.58 707.60-14.61L707.60-14.61L707.60-14.61Q708.13-16.64 708.34-18.71L708.34-18.71L708.34-18.71Q708.55-20.78 708.55-22.66" fill="#5e622a" stroke="none" stroke-width="none" transform="translate(-382.34503746032715,23.34120193481445)" style="fill: rgb(149, 246, 38);"></path></g><g class="path" style="transform: scale(0.91); transform-origin: 365.02px 0.781202px; animation: 1.25s linear 0s infinite normal forwards running breath-6f375325-2d3b-4ce0-9ddc-60bf087b43e6;"><path d="M770.39-45.12L752.62 0L740.74 0L724.34-45.12L737.54-45.12L749.57-9.18L761.25-45.12L770.39-45.12" fill="#5e622a" stroke="none" stroke-width="none" transform="translate(-382.34503746032715,23.34120193481445)" style="fill: rgb(255, 18, 94);"></path></g></g>
</g>
</g>
<style id="breath-6f375325-2d3b-4ce0-9ddc-60bf087b43e6" data-anikit="">@keyframes breath-6f375325-2d3b-4ce0-9ddc-60bf087b43e6
{
  0% {
    animation-timing-function: cubic-bezier(0.9647,0.2413,-0.0705,0.7911);
    transform: scale(0.9099999999999999);
  }
  51% {
    animation-timing-function: cubic-bezier(0.9226,0.2631,-0.0308,0.7628);
    transform: scale(1.02994);
  }
  100% {
    transform: scale(0.9099999999999999);
  }
}</style></svg>